<?xml version="1.0" standalone="no"?><!DOCTYPE svg PUBLIC "-//W3C//DTD SVG 1.1//EN" "http://www.w3.org/Graphics/SVG/1.1/DTD/svg11.dtd"><svg t="1521709028331" class="icon" style="" viewBox="0 0 1024 1024" version="1.1" xmlns="http://www.w3.org/2000/svg" p-id="1057" xmlns:xlink="http://www.w3.org/1999/xlink" width="200" height="200"><defs><style type="text/css"></style></defs><path d="M512 131.296325c-247.364831 0-447.886797 148.60248-447.886797 331.913459 0 110.168122 72.408123 207.795627 183.89631 268.170692-0.298805 0.973164-88.812745 161.323199-88.812745 161.323199s270.260284-102.631472 271.013437-103.09196c26.521027 3.624551 53.859675 5.523807 81.789795 5.523807 247.358691 0 447.886797-148.608619 447.886797-331.925738C959.885773 279.898805 759.358691 131.296325 512 131.296325zM296.990065 498.670413c-19.683295 0-35.651988-15.884782-35.651988-35.490306 0-19.605523 15.968693-35.496445 35.651988-35.496445 19.689435 0 35.639708 15.890922 35.639708 35.496445C332.630796 482.785631 316.679499 498.670413 296.990065 498.670413zM438.815187 500.157277c-19.677155 0-35.639708-15.890922-35.639708-35.496445 0-19.605523 15.962553-35.496445 35.639708-35.496445 19.695574 0 35.658128 15.890922 35.658128 35.496445C474.473315 484.266355 458.510762 500.157277 438.815187 500.157277zM582.879304 500.157277c-19.683295 0-35.633568-15.890922-35.633568-35.496445 0-19.605523 15.950274-35.496445 35.633568-35.496445 19.695574 0 35.645848 15.890922 35.645848 35.496445C618.525152 484.266355 602.574878 500.157277 582.879304 500.157277zM725.462696 500.157277c-19.683295 0-35.639708-15.890922-35.639708-35.496445 0-19.605523 15.956414-35.496445 35.639708-35.496445 19.683295 0 35.651988 15.890922 35.651988 35.496445C761.114684 484.266355 745.145991 500.157277 725.462696 500.157277z" p-id="1058" fill="#999999"></path></svg>